<?xml version="1.0" encoding="UTF-8" standalone="no"?>
<svg
   version="1.1"
   width="297mm"
   height="210mm"
   viewBox="0 0 297 210"
   id="svg99"
   sodipodi:docname="A4L.svg"
   inkscape:version="1.1-beta1 (77e7b44db3, 2021-03-28)"
   xmlns:inkscape="http://www.inkscape.org/namespaces/inkscape"
   xmlns:sodipodi="http://sodipodi.sourceforge.net/DTD/sodipodi-0.dtd"
   xmlns="http://www.w3.org/2000/svg"
   xmlns:svg="http://www.w3.org/2000/svg"
   xmlns:rdf="http://www.w3.org/1999/02/22-rdf-syntax-ns#"
   xmlns:cc="http://creativecommons.org/ns#"
   xmlns:dc="http://purl.org/dc/elements/1.1/"
   xmlns:freecad="http://www.freecadweb.org/wiki/index.php?title=Svg_Namespace"
   xmlns:serif="http://www.serif.com/">
  <metadata
     id="metadata105">
    <rdf:RDF>
      <cc:Work
         rdf:about="">
        <dc:format>image/svg+xml</dc:format>
        <dc:type
           rdf:resource="http://purl.org/dc/dcmitype/StillImage" />
      </cc:Work>
    </rdf:RDF>
  </metadata>
  <defs
     id="defs103" />
  <sodipodi:namedview
     pagecolor="#ffffff"
     bordercolor="#666666"
     borderopacity="1"
     objecttolerance="10"
     gridtolerance="10"
     guidetolerance="10"
     inkscape:pageopacity="0"
     inkscape:pageshadow="2"
     inkscape:window-width="3840"
     inkscape:window-height="2081"
     id="namedview101"
     showgrid="false"
     inkscape:zoom="1.6820162"
     inkscape:cx="895.35404"
     inkscape:cy="472.94432"
     inkscape:window-x="-9"
     inkscape:window-y="-9"
     inkscape:window-maximized="1"
     inkscape:current-layer="svg99"
     inkscape:pagecheckerboard="0"
     inkscape:document-units="mm" />
  <!-- Working space 10 10 287 200 -->
  <!-- Title block 107 162 287 200 -->
  <g
     id="g48">
    <rect
       id="drawing-border"
       style="fill:none;stroke:#000000;stroke-width:0.37493548;stroke-miterlimit:4"
       width="286.62506"
       height="199.62506"
       x="5.1874681"
       y="5.1874757" />
    <!-- width-20, height-20 -->
    <g
       transform="translate(87,-65)"
       id="g46">
      <!-- A4 Portrait based for other formats width-210, height-297 -->
      <!--        page       rect   translation
                     w    h    rw   rh   tx   ty
              A4-P  210  297  180  277    0    0
              A3-L  420  297  390  277  210    0
              A2-L  594  420  564  400  384  123
              A1-L  841  594  811  574  631  297
              A0-L 1189  841 1159  821  979  544
      -->
      <g
         id="titleblock-structure"
         style="fill:none;stroke:#000000;stroke-width:0.35;stroke-linecap:miter;stroke-miterlimit:4">
        <rect
           width="286.6821"
           height="19.68211"
           x="-81.841057"
           y="250.15895"
           id="rect3"
           style="stroke-width:0.31788945" />
        <path
           d="m 69.327672,250 v 20"
           id="path7"
           inkscape:connector-curvature="0"
           style="stroke-width:0.47193992" />
        <path
           d="m 138.38429,258.24713 h 66.34824"
           id="path15"
           inkscape:connector-curvature="0"
           style="stroke-width:0.36805025" />
        <path
           d="m 40.86099,250 v 20"
           id="path7-3"
           inkscape:connector-curvature="0"
           style="fill:none;stroke:#000000;stroke-width:0.47193992;stroke-miterlimit:4" />
        <path
           d="m 138.23597,250 v 20"
           id="path7-6"
           inkscape:connector-curvature="0"
           style="fill:none;stroke:#000000;stroke-width:0.47193992;stroke-miterlimit:4" />
        <path
           d="m 169.87261,258.43407 v 11.465"
           id="path7-6-7"
           inkscape:connector-curvature="0"
           style="fill:none;stroke:#000000;stroke-width:0.35732126;stroke-miterlimit:4" />
      </g>
      <g
         id="titleblock-text-non-editable"
         style="font-size:3px;text-anchor:start;fill:#000000;font-family:osifont">
        <text
           x="-77.295288"
           y="254.95467"
           id="text22"
           transform="scale(0.99998887,1.0000111)"
           style="font-size:2.99997px;stroke-width:0.999989">Nom:</text>
        <text
           x="142.80225"
           y="264.95752"
           id="text26">Taille:</text>
        <text
           x="43.859753"
           y="255"
           id="text28"
           inkscape:transform-center-x="7.1186441"
           inkscape:transform-center-y="0.66737288">ID:</text>
        <text
           x="172.70557"
           y="264.95752"
           id="text30" />
        <text
           x="142.70639"
           y="254.95607"
           id="text36"
           transform="scale(0.99999431,1.0000057)"
           style="font-size:2.99998px;stroke-width:0.999994">Date:</text>
      </g>
      <!-- Set display:none to hide FreeCAD Logo -->
    </g>
  </g>
  <g
     id="titleblock-text-editable"
     style="font-size:5px;text-anchor:start;fill:#000000;font-family:osifont">
    <text
       freecad:editable="FC-SI"
       x="244.96674"
       y="200.99516"
       id="text72"
       transform="scale(0.9999764,1.0000236)"
       style="font-size:4.99988px;stroke-width:0.999976"><tspan
         id="tspan70"
         style="stroke-width:0.999976">A4</tspan></text>
    <text
       freecad:editable="FC-SH"
       x="130.66338"
       y="200"
       id="text76"
       inkscape:transform-center-x="11.122881"
       inkscape:transform-center-y="0.22245763"><tspan
         id="tspan74">ID</tspan></text>
    <text
       freecad:editable="FC-SC"
       x="271.50723"
       y="200.93071"
       id="text80"
       transform="scale(1.0000075,0.99999252)"
       style="font-size:5.00004px;stroke-width:1.00001"><tspan
         id="tspan78"
         style="stroke-width:1.00001" /></text>
    <text
       freecad:editable="FC-DATE"
       x="244.51004"
       y="190.53554"
       id="text92"
       transform="scale(0.9999969)"
       style="font-size:4.99998px;stroke-width:0.999997"><tspan
         id="tspan90"
         style="stroke-width:0.999997">DD/MM/YYYY</tspan></text>
    <text
       id="text4617"
       y="199.9292"
       x="9.5092773"
       freecad:editable="NOM"><tspan
         id="tspan4615">NOM</tspan></text>
  </g>
  <!-- DrawingContent -->
  <g
     transform="matrix(0.08311255,0,0,0.08311255,110.90218,186.22172)"
     id="g128"
     style="clip-rule:evenodd;fill-rule:evenodd;stroke-linejoin:round;stroke-miterlimit:2">
    <g
       id="Page-2"
       serif:id="Page 2"
       transform="matrix(1.02863,0,0,1.16038,675,0)">
      <rect
         x="0"
         y="0"
         width="570.25897"
         height="181.52299"
         style="fill:none"
         id="rect2" />
      <g
         id="Calque-1"
         serif:id="Calque 1" />
      <g
         transform="matrix(0.937149,0,0,0.420084,-2.50054,43.5852)"
         id="g85">
        <g
           transform="matrix(43.5693,0,0,86.1611,36.1341,302.435)"
           id="g7">
          <path
             d="M 0.174,-0.391 V -0.61 H 0.35 c 0.03,0 0.056,0.01 0.078,0.032 0.021,0.021 0.032,0.047 0.032,0.078 0,0.03 -0.011,0.056 -0.032,0.077 C 0.406,-0.401 0.38,-0.391 0.35,-0.391 Z M 0.091,-0.7 c -0.004,0 -0.006,0.002 -0.006,0.006 v 0.688 C 0.085,-0.002 0.087,0 0.091,0 h 0.077 c 0.004,0 0.006,-0.002 0.006,-0.006 v -0.295 h 0.172 c 0.054,0 0.101,-0.018 0.141,-0.056 0.04,-0.038 0.061,-0.084 0.062,-0.138 C 0.551,-0.551 0.532,-0.599 0.493,-0.64 0.454,-0.68 0.406,-0.7 0.35,-0.7 Z"
             style="fill:#2c3000;fill-rule:nonzero"
             id="path5" />
        </g>
        <g
           transform="matrix(43.5693,0,0,86.1611,62.8535,302.435)"
           id="g11">
          <path
             d="m 0.247,-0.358 0.088,-0.213 0.088,0.213 z m 0.054,-0.343 c -0.003,0 -0.005,0.002 -0.006,0.004 L 0.009,-0.009 C 0.008,-0.007 0.008,-0.005 0.01,-0.003 0.011,-0.001 0.013,0 0.015,0 H 0.093 C 0.096,0 0.098,-0.001 0.099,-0.004 L 0.211,-0.273 H 0.458 L 0.57,-0.004 C 0.571,-0.001 0.573,0 0.576,0 h 0.078 c 0.003,0 0.004,-0.001 0.006,-0.003 0.001,-0.002 0.001,-0.004 0,-0.006 L 0.375,-0.697 C 0.374,-0.699 0.372,-0.701 0.369,-0.701 Z"
             style="fill:#2c3000;fill-rule:nonzero"
             id="path9" />
        </g>
        <g
           transform="matrix(43.5693,0,0,86.1611,93.0831,302.435)"
           id="g15">
          <path
             d="M 0.174,-0.089 V -0.693 C 0.174,-0.698 0.172,-0.7 0.168,-0.7 H 0.091 c -0.004,0 -0.006,0.002 -0.006,0.007 v 0.687 C 0.085,-0.002 0.087,0 0.091,0 H 0.48 c 0.004,0 0.006,-0.002 0.006,-0.006 v -0.077 c 0,-0.004 -0.002,-0.006 -0.006,-0.006 z"
             style="fill:#2c3000;fill-rule:nonzero"
             id="path13" />
        </g>
        <g
           transform="matrix(43.5693,0,0,86.1611,116.165,302.435)"
           id="g19">
          <path
             d="m 0.091,-0.699 c -0.004,0 -0.006,0.002 -0.006,0.006 v 0.687 C 0.085,-0.002 0.087,0 0.091,0 H 0.545 C 0.55,0 0.552,-0.002 0.552,-0.006 v -0.077 c 0,-0.004 -0.002,-0.006 -0.007,-0.006 H 0.174 v -0.216 h 0.269 c 0.004,0 0.006,-0.002 0.006,-0.007 v -0.076 c 0,-0.004 -0.002,-0.006 -0.006,-0.006 H 0.174 V -0.61 h 0.371 c 0.005,0 0.007,-0.002 0.007,-0.007 v -0.076 c 0,-0.004 -0.002,-0.006 -0.007,-0.006 z"
             style="fill:#2c3000;fill-rule:nonzero"
             id="path17" />
        </g>
        <g
           transform="matrix(43.5693,0,0,86.1611,142.501,302.435)"
           id="g23">
          <path
             d="m 0.036,-0.699 c -0.005,0 -0.007,0.002 -0.007,0.006 v 0.076 c 0,0.005 0.002,0.007 0.007,0.007 h 0.183 v 0.604 C 0.219,-0.002 0.221,0 0.226,0 H 0.302 C 0.306,0 0.308,-0.002 0.308,-0.006 V -0.61 h 0.183 c 0.004,0 0.007,-0.002 0.007,-0.007 v -0.076 c 0,-0.004 -0.003,-0.006 -0.007,-0.006 z"
             style="fill:#2c3000;fill-rule:nonzero"
             id="path21" />
        </g>
        <g
           transform="matrix(43.5693,0,0,86.1611,165.902,302.435)"
           id="g27">
          <path
             d="m 0.036,-0.699 c -0.005,0 -0.007,0.002 -0.007,0.006 v 0.076 c 0,0.005 0.002,0.007 0.007,0.007 h 0.183 v 0.604 C 0.219,-0.002 0.221,0 0.226,0 H 0.302 C 0.306,0 0.308,-0.002 0.308,-0.006 V -0.61 h 0.183 c 0.004,0 0.007,-0.002 0.007,-0.007 v -0.076 c 0,-0.004 -0.003,-0.006 -0.007,-0.006 z"
             style="fill:#2c3000;fill-rule:nonzero"
             id="path25" />
        </g>
        <g
           transform="matrix(43.5693,0,0,86.1611,189.302,302.435)"
           id="g31">
          <path
             d="m 0.091,-0.699 c -0.004,0 -0.006,0.002 -0.006,0.006 v 0.687 C 0.085,-0.002 0.087,0 0.091,0 H 0.545 C 0.55,0 0.552,-0.002 0.552,-0.006 v -0.077 c 0,-0.004 -0.002,-0.006 -0.007,-0.006 H 0.174 v -0.216 h 0.269 c 0.004,0 0.006,-0.002 0.006,-0.007 v -0.076 c 0,-0.004 -0.002,-0.006 -0.006,-0.006 H 0.174 V -0.61 h 0.371 c 0.005,0 0.007,-0.002 0.007,-0.007 v -0.076 c 0,-0.004 -0.002,-0.006 -0.007,-0.006 z"
             style="fill:#2c3000;fill-rule:nonzero"
             id="path29" />
        </g>
        <g
           transform="matrix(43.5693,0,0,86.1611,215.639,302.435)"
           id="g35">
          <path
             d="M 0.272,-0.414 0.271,-0.415 C 0.228,-0.433 0.199,-0.45 0.182,-0.464 c -0.02,-0.017 -0.03,-0.037 -0.03,-0.059 0,-0.058 0.039,-0.087 0.117,-0.087 0.03,0 0.059,0.006 0.086,0.019 0.009,0.004 0.019,0.009 0.027,0.015 0.004,0.002 0.007,0.004 0.01,0.007 0.002,0.002 0.004,0.004 0.006,0.006 0.003,0.002 0.006,0.002 0.009,-0.001 l 0.055,-0.052 c 0.003,-0.003 0.003,-0.007 0,-0.009 C 0.459,-0.628 0.456,-0.631 0.453,-0.634 0.449,-0.637 0.444,-0.641 0.439,-0.644 0.427,-0.653 0.413,-0.662 0.399,-0.669 c -0.041,-0.02 -0.084,-0.03 -0.13,-0.03 -0.063,0 -0.114,0.016 -0.15,0.047 -0.037,0.031 -0.056,0.074 -0.056,0.129 0,0.05 0.021,0.092 0.062,0.127 0.015,0.013 0.033,0.025 0.055,0.037 0.009,0.004 0.018,0.009 0.028,0.014 l 0.026,0.011 0.023,0.011 0.001,0.001 c 0.048,0.021 0.082,0.04 0.102,0.057 0.024,0.021 0.036,0.044 0.036,0.071 0,0.07 -0.047,0.105 -0.139,0.105 -0.035,0 -0.069,-0.007 -0.101,-0.022 C 0.145,-0.117 0.134,-0.123 0.125,-0.13 0.121,-0.132 0.117,-0.135 0.114,-0.138 0.111,-0.14 0.109,-0.142 0.106,-0.144 c -0.002,-0.003 -0.005,-0.003 -0.008,0 l -0.056,0.052 c -0.003,0.003 -0.003,0.007 0,0.009 0.003,0.003 0.006,0.006 0.01,0.009 0.005,0.004 0.01,0.008 0.015,0.012 0.014,0.01 0.029,0.02 0.045,0.028 C 0.157,-0.011 0.206,0 0.257,0 0.327,0 0.383,-0.017 0.423,-0.052 0.464,-0.087 0.484,-0.134 0.484,-0.194 0.484,-0.249 0.462,-0.296 0.417,-0.334 0.4,-0.348 0.379,-0.362 0.354,-0.375 0.345,-0.38 0.335,-0.385 0.323,-0.391 L 0.309,-0.397 C 0.305,-0.399 0.301,-0.401 0.294,-0.403 Z"
             style="fill:#2c3000;fill-rule:nonzero"
             id="path33" />
        </g>
        <g
           transform="matrix(43.5693,0,0,86.1611,251.526,302.435)"
           id="g39">
          <path
             d="m 0.091,-0.699 c -0.004,0 -0.006,0.002 -0.006,0.006 v 0.687 C 0.085,-0.002 0.087,0 0.091,0 H 0.545 C 0.55,0 0.552,-0.002 0.552,-0.006 v -0.077 c 0,-0.004 -0.002,-0.006 -0.007,-0.006 H 0.174 v -0.216 h 0.269 c 0.004,0 0.006,-0.002 0.006,-0.007 v -0.076 c 0,-0.004 -0.002,-0.006 -0.006,-0.006 H 0.174 V -0.61 h 0.371 c 0.005,0 0.007,-0.002 0.007,-0.007 v -0.076 c 0,-0.004 -0.002,-0.006 -0.007,-0.006 z"
             style="fill:#2c3000;fill-rule:nonzero"
             id="path37" />
        </g>
        <g
           transform="matrix(43.5693,0,0,86.1611,277.863,302.435)"
           id="g43">
          <path
             d="m 0.036,-0.699 c -0.005,0 -0.007,0.002 -0.007,0.006 v 0.076 c 0,0.005 0.002,0.007 0.007,0.007 h 0.183 v 0.604 C 0.219,-0.002 0.221,0 0.226,0 H 0.302 C 0.306,0 0.308,-0.002 0.308,-0.006 V -0.61 h 0.183 c 0.004,0 0.007,-0.002 0.007,-0.007 v -0.076 c 0,-0.004 -0.003,-0.006 -0.007,-0.006 z"
             style="fill:#2c3000;fill-rule:nonzero"
             id="path41" />
        </g>
        <g
           transform="matrix(43.5693,0,0,86.1611,312.942,302.435)"
           id="g47">
          <path
             d="m 0.091,-0.699 c -0.004,0 -0.006,0.002 -0.006,0.006 v 0.687 C 0.085,-0.002 0.087,0 0.091,0 H 0.545 C 0.55,0 0.552,-0.002 0.552,-0.006 v -0.077 c 0,-0.004 -0.002,-0.006 -0.007,-0.006 H 0.174 v -0.216 h 0.269 c 0.004,0 0.006,-0.002 0.006,-0.007 v -0.076 c 0,-0.004 -0.002,-0.006 -0.006,-0.006 H 0.174 V -0.61 h 0.371 c 0.005,0 0.007,-0.002 0.007,-0.007 v -0.076 c 0,-0.004 -0.002,-0.006 -0.007,-0.006 z"
             style="fill:#2c3000;fill-rule:nonzero"
             id="path45" />
        </g>
        <g
           transform="matrix(43.5693,0,0,86.1611,339.279,302.435)"
           id="g51">
          <path
             d="m 0.622,-0.699 c -0.005,0 -0.009,0.002 -0.013,0.006 L 0.371,-0.427 0.132,-0.693 C 0.129,-0.697 0.125,-0.699 0.12,-0.699 H 0.091 c -0.004,0 -0.006,0.002 -0.006,0.006 v 0.687 C 0.085,-0.002 0.087,0 0.091,0 H 0.164 C 0.168,0 0.17,-0.002 0.17,-0.006 v -0.518 l 0.196,0.219 c 0.003,0.004 0.006,0.004 0.009,0 l 0.197,-0.219 v 0.518 C 0.572,-0.002 0.574,0 0.579,0 h 0.072 c 0.004,0 0.006,-0.002 0.006,-0.006 v -0.687 c 0,-0.004 -0.002,-0.006 -0.006,-0.006 z"
             style="fill:#2c3000;fill-rule:nonzero"
             id="path49" />
        </g>
        <g
           transform="matrix(43.5693,0,0,86.1611,372.657,302.435)"
           id="g55">
          <path
             d="m 0.174,-0.089 v -0.235 h 0.191 c 0.033,0 0.06,0.012 0.083,0.034 0.023,0.024 0.035,0.051 0.035,0.083 0,0.033 -0.012,0.061 -0.035,0.083 -0.023,0.024 -0.05,0.035 -0.083,0.035 z m 0,-0.521 h 0.169 c 0.027,0 0.05,0.009 0.07,0.029 0.019,0.019 0.029,0.042 0.029,0.069 0,0.028 -0.01,0.051 -0.029,0.07 -0.02,0.019 -0.043,0.029 -0.07,0.029 H 0.174 Z m 0.302,0.229 C 0.513,-0.418 0.532,-0.463 0.531,-0.515 0.53,-0.566 0.511,-0.609 0.475,-0.645 0.438,-0.681 0.394,-0.699 0.343,-0.699 H 0.091 c -0.004,0 -0.006,0.002 -0.006,0.006 v 0.687 C 0.085,-0.002 0.087,0 0.091,0 h 0.27 C 0.417,0 0.466,-0.019 0.507,-0.058 0.549,-0.097 0.57,-0.144 0.572,-0.2 0.573,-0.238 0.564,-0.272 0.547,-0.305 0.53,-0.336 0.506,-0.362 0.476,-0.381 Z"
             style="fill:#2c3000;fill-rule:nonzero"
             id="path53" />
        </g>
        <g
           transform="matrix(43.5693,0,0,86.1611,401.312,302.435)"
           id="g59">
          <path
             d="m 0.247,-0.358 0.088,-0.213 0.088,0.213 z m 0.054,-0.343 c -0.003,0 -0.005,0.002 -0.006,0.004 L 0.009,-0.009 C 0.008,-0.007 0.008,-0.005 0.01,-0.003 0.011,-0.001 0.013,0 0.015,0 H 0.093 C 0.096,0 0.098,-0.001 0.099,-0.004 L 0.211,-0.273 H 0.458 L 0.57,-0.004 C 0.571,-0.001 0.573,0 0.576,0 h 0.078 c 0.003,0 0.004,-0.001 0.006,-0.003 0.001,-0.002 0.001,-0.004 0,-0.006 L 0.375,-0.697 C 0.374,-0.699 0.372,-0.701 0.369,-0.701 Z"
             style="fill:#2c3000;fill-rule:nonzero"
             id="path57" />
        </g>
        <g
           transform="matrix(43.5693,0,0,86.1611,431.542,302.435)"
           id="g63">
          <path
             d="M 0.174,-0.089 V -0.693 C 0.174,-0.698 0.172,-0.7 0.168,-0.7 H 0.091 c -0.004,0 -0.006,0.002 -0.006,0.007 v 0.687 C 0.085,-0.002 0.087,0 0.091,0 H 0.48 c 0.004,0 0.006,-0.002 0.006,-0.006 v -0.077 c 0,-0.004 -0.002,-0.006 -0.006,-0.006 z"
             style="fill:#2c3000;fill-rule:nonzero"
             id="path61" />
        </g>
        <g
           transform="matrix(43.5693,0,0,86.1611,454.623,302.435)"
           id="g67">
          <path
             d="M 0.174,-0.089 V -0.693 C 0.174,-0.698 0.172,-0.7 0.168,-0.7 H 0.091 c -0.004,0 -0.006,0.002 -0.006,0.007 v 0.687 C 0.085,-0.002 0.087,0 0.091,0 H 0.48 c 0.004,0 0.006,-0.002 0.006,-0.006 v -0.077 c 0,-0.004 -0.002,-0.006 -0.006,-0.006 z"
             style="fill:#2c3000;fill-rule:nonzero"
             id="path65" />
        </g>
        <g
           transform="matrix(43.5693,0,0,86.1611,477.705,302.435)"
           id="g71">
          <path
             d="m 0.247,-0.358 0.088,-0.213 0.088,0.213 z m 0.054,-0.343 c -0.003,0 -0.005,0.002 -0.006,0.004 L 0.009,-0.009 C 0.008,-0.007 0.008,-0.005 0.01,-0.003 0.011,-0.001 0.013,0 0.015,0 H 0.093 C 0.096,0 0.098,-0.001 0.099,-0.004 L 0.211,-0.273 H 0.458 L 0.57,-0.004 C 0.571,-0.001 0.573,0 0.576,0 h 0.078 c 0.003,0 0.004,-0.001 0.006,-0.003 0.001,-0.002 0.001,-0.004 0,-0.006 L 0.375,-0.697 C 0.374,-0.699 0.372,-0.701 0.369,-0.701 Z"
             style="fill:#2c3000;fill-rule:nonzero"
             id="path69" />
        </g>
        <g
           transform="matrix(43.5693,0,0,86.1611,507.934,302.435)"
           id="g75">
          <path
             d="m 0.446,-0.361 c -0.004,0 -0.006,0.002 -0.006,0.006 v 0.076 c 0,0.004 0.002,0.007 0.006,0.007 H 0.56 v 0.117 c -0.049,0.044 -0.106,0.066 -0.173,0.066 -0.075,0 -0.138,-0.028 -0.19,-0.083 -0.052,-0.056 -0.075,-0.121 -0.069,-0.198 0.005,-0.065 0.031,-0.121 0.08,-0.167 0.048,-0.046 0.105,-0.07 0.17,-0.072 0.075,-0.003 0.139,0.022 0.192,0.074 0.003,0.003 0.006,0.003 0.009,0 L 0.633,-0.588 C 0.637,-0.591 0.637,-0.594 0.634,-0.597 0.567,-0.664 0.486,-0.698 0.392,-0.699 0.299,-0.7 0.218,-0.668 0.149,-0.604 0.08,-0.539 0.043,-0.46 0.039,-0.368 c -0.003,0.051 0.005,0.1 0.024,0.147 0.017,0.045 0.043,0.084 0.078,0.119 0.034,0.034 0.074,0.06 0.119,0.078 C 0.307,-0.006 0.355,0.002 0.406,0 0.496,-0.005 0.575,-0.041 0.641,-0.108 L 0.647,-0.116 C 0.649,-0.117 0.649,-0.118 0.649,-0.12 v -0.235 c 0,-0.004 -0.002,-0.006 -0.006,-0.006 z"
             style="fill:#2c3000;fill-rule:nonzero"
             id="path73" />
        </g>
        <g
           transform="matrix(43.5693,0,0,86.1611,539.908,302.435)"
           id="g79">
          <path
             d="m 0.091,-0.699 c -0.004,0 -0.006,0.002 -0.006,0.006 v 0.687 C 0.085,-0.002 0.087,0 0.091,0 H 0.545 C 0.55,0 0.552,-0.002 0.552,-0.006 v -0.077 c 0,-0.004 -0.002,-0.006 -0.007,-0.006 H 0.174 v -0.216 h 0.269 c 0.004,0 0.006,-0.002 0.006,-0.007 v -0.076 c 0,-0.004 -0.002,-0.006 -0.006,-0.006 H 0.174 V -0.61 h 0.371 c 0.005,0 0.007,-0.002 0.007,-0.007 v -0.076 c 0,-0.004 -0.002,-0.006 -0.007,-0.006 z"
             style="fill:#2c3000;fill-rule:nonzero"
             id="path77" />
        </g>
        <g
           transform="matrix(43.5693,0,0,86.1611,566.245,302.435)"
           id="g83">
          <path
             d="M 0.272,-0.414 0.271,-0.415 C 0.228,-0.433 0.199,-0.45 0.182,-0.464 c -0.02,-0.017 -0.03,-0.037 -0.03,-0.059 0,-0.058 0.039,-0.087 0.117,-0.087 0.03,0 0.059,0.006 0.086,0.019 0.009,0.004 0.019,0.009 0.027,0.015 0.004,0.002 0.007,0.004 0.01,0.007 0.002,0.002 0.004,0.004 0.006,0.006 0.003,0.002 0.006,0.002 0.009,-0.001 l 0.055,-0.052 c 0.003,-0.003 0.003,-0.007 0,-0.009 C 0.459,-0.628 0.456,-0.631 0.453,-0.634 0.449,-0.637 0.444,-0.641 0.439,-0.644 0.427,-0.653 0.413,-0.662 0.399,-0.669 c -0.041,-0.02 -0.084,-0.03 -0.13,-0.03 -0.063,0 -0.114,0.016 -0.15,0.047 -0.037,0.031 -0.056,0.074 -0.056,0.129 0,0.05 0.021,0.092 0.062,0.127 0.015,0.013 0.033,0.025 0.055,0.037 0.009,0.004 0.018,0.009 0.028,0.014 l 0.026,0.011 0.023,0.011 0.001,0.001 c 0.048,0.021 0.082,0.04 0.102,0.057 0.024,0.021 0.036,0.044 0.036,0.071 0,0.07 -0.047,0.105 -0.139,0.105 -0.035,0 -0.069,-0.007 -0.101,-0.022 C 0.145,-0.117 0.134,-0.123 0.125,-0.13 0.121,-0.132 0.117,-0.135 0.114,-0.138 0.111,-0.14 0.109,-0.142 0.106,-0.144 c -0.002,-0.003 -0.005,-0.003 -0.008,0 l -0.056,0.052 c -0.003,0.003 -0.003,0.007 0,0.009 0.003,0.003 0.006,0.006 0.01,0.009 0.005,0.004 0.01,0.008 0.015,0.012 0.014,0.01 0.029,0.02 0.045,0.028 C 0.157,-0.011 0.206,0 0.257,0 0.327,0 0.383,-0.017 0.423,-0.052 0.464,-0.087 0.484,-0.134 0.484,-0.194 0.484,-0.249 0.462,-0.296 0.417,-0.334 0.4,-0.348 0.379,-0.362 0.354,-0.375 0.345,-0.38 0.335,-0.385 0.323,-0.391 L 0.309,-0.397 C 0.305,-0.399 0.301,-0.401 0.294,-0.403 Z"
             style="fill:#2c3000;fill-rule:nonzero"
             id="path81" />
        </g>
      </g>
      <g
         transform="matrix(0.972165,0,0,1.14252,-14.9138,-255.594)"
         id="g111">
        <g
           transform="matrix(150,0,0,113.143,44.8833,313.546)"
           id="g89">
          <path
             d="M 0.753,-0.39 H 0.402 v 0.14 h 0.187 c -0.025,0.067 -0.086,0.108 -0.179,0.108 -0.136,0 -0.22,-0.087 -0.22,-0.206 0,-0.123 0.088,-0.21 0.206,-0.21 0.079,0 0.142,0.036 0.171,0.082 l 0.136,-0.078 c -0.059,-0.094 -0.172,-0.16 -0.306,-0.16 -0.206,0 -0.367,0.162 -0.367,0.365 0,0.201 0.158,0.363 0.378,0.363 0.196,0 0.345,-0.13 0.345,-0.344 z"
             style="fill:#94c52a;fill-rule:nonzero;stroke:#2d982a;stroke-width:0.02px"
             id="path87" />
        </g>
        <g
           transform="matrix(150,0,0,113.143,162.333,313.546)"
           id="g93">
          <path
             d="M 0.22,-0.154 V -0.278 H 0.47 V -0.43 H 0.22 V -0.546 H 0.495 V -0.7 H 0.06 V 0 H 0.5 v -0.154 z"
             style="fill:#94c52a;fill-rule:nonzero;stroke:#2d982a;stroke-width:0.02px"
             id="path91" />
        </g>
        <g
           transform="matrix(150,0,0,113.143,241.833,313.546)"
           id="g97">
          <path
             d="m 0.305,0.014 c 0.152,0 0.26,-0.08 0.26,-0.215 0,-0.148 -0.119,-0.185 -0.225,-0.217 -0.109,-0.033 -0.126,-0.055 -0.126,-0.087 0,-0.028 0.025,-0.053 0.075,-0.053 0.064,0 0.097,0.031 0.121,0.081 L 0.545,-0.556 C 0.494,-0.659 0.404,-0.714 0.289,-0.714 c -0.121,0 -0.235,0.078 -0.235,0.213 0,0.134 0.102,0.184 0.206,0.213 0.105,0.029 0.145,0.046 0.145,0.089 0,0.027 -0.019,0.057 -0.095,0.057 -0.079,0 -0.122,-0.039 -0.147,-0.097 l -0.138,0.08 c 0.039,0.103 0.133,0.173 0.28,0.173 z"
             style="fill:#94c52a;fill-rule:nonzero;stroke:#2d982a;stroke-width:0.02px"
             id="path95" />
        </g>
        <g
           transform="matrix(150,0,0,113.143,328.833,313.546)"
           id="g101">
          <path
             d="M 0.325,-0.7 H 0.06 V 0 h 0.16 v -0.22 h 0.105 c 0.138,0 0.245,-0.107 0.245,-0.24 0,-0.133 -0.107,-0.24 -0.245,-0.24 z m 0,0.33 H 0.22 v -0.18 h 0.105 c 0.049,0 0.085,0.039 0.085,0.09 0,0.051 -0.036,0.09 -0.085,0.09 z"
             style="fill:#94c52a;fill-rule:nonzero;stroke:#2d982a;stroke-width:0.02px"
             id="path99" />
        </g>
        <g
           transform="matrix(150,0,0,113.143,406.833,313.546)"
           id="g105">
          <path
             d="M 0.505,0 H 0.68 L 0.442,-0.7 H 0.238 L 0,0 H 0.175 L 0.21,-0.11 H 0.47 Z M 0.258,-0.26 0.34,-0.517 0.422,-0.26 Z"
             style="fill:#94c52a;fill-rule:nonzero;stroke:#2d982a;stroke-width:0.02px"
             id="path103" />
        </g>
        <g
           transform="matrix(150,0,0,113.143,508.833,313.546)"
           id="g109">
          <path
             d="M 0.22,-0.154 V -0.7 H 0.06 V 0 h 0.41 v -0.154 z"
             style="fill:#94c52a;fill-rule:nonzero;stroke:#2d982a;stroke-width:0.02px"
             id="path107" />
        </g>
      </g>
      <g
         transform="matrix(0.764955,0,0,0.270996,-257.816,46.7827)"
         id="g125">
        <g
           transform="matrix(4.7985,0,0,5.36209,439.399,144.601)"
           id="g115">
          <path
             d="M 17.506,1.633 1.55,5.233 V 23.7 l 11.905,6.4 16.995,-4 V 7.3 Z"
             style="fill:none;fill-rule:nonzero;stroke:#a0522d;stroke-width:1.1px;stroke-linecap:round;stroke-miterlimit:1"
             id="path113" />
        </g>
        <g
           transform="matrix(4.7985,0,0,5.36209,439.399,144.601)"
           id="g119">
          <path
             d="M 1.983,5.5 13.55,11.233 V 29.95 M 13.5,11.3 30.4,7.3"
             style="fill:none;fill-rule:nonzero;stroke:#a0522d;stroke-width:1.1px;stroke-linecap:round;stroke-miterlimit:1"
             id="path117" />
        </g>
        <g
           transform="matrix(4.7985,0,0,5.36209,439.399,144.601)"
           id="g123">
          <path
             d="M 17.5,1.7 V 20.433 L 1.477,23.7 M 17.5,20.4 30.4,26.1"
             style="fill:none;fill-rule:nonzero;stroke:#a0522d;stroke-width:1px;stroke-linecap:round;stroke-miterlimit:1;stroke-opacity:0.4"
             id="path121" />
        </g>
      </g>
    </g>
  </g>
</svg>
