<?xml version="1.0" encoding="UTF-8" standalone="no"?>
<svg
   xmlns:serif="http://www.serif.com/"
   xmlns:dc="http://purl.org/dc/elements/1.1/"
   xmlns:cc="http://creativecommons.org/ns#"
   xmlns:rdf="http://www.w3.org/1999/02/22-rdf-syntax-ns#"
   xmlns:svg="http://www.w3.org/2000/svg"
   xmlns="http://www.w3.org/2000/svg"
   xmlns:sodipodi="http://sodipodi.sourceforge.net/DTD/sodipodi-0.dtd"
   xmlns:inkscape="http://www.inkscape.org/namespaces/inkscape"
   width="100%"
   height="100%"
   viewBox="0 0 512 512"
   version="1.1"
   xml:space="preserve"
   style="fill-rule:evenodd;clip-rule:evenodd;stroke-linecap:round;stroke-linejoin:round;stroke-miterlimit:1;"
   id="svg26"
   sodipodi:docname="gespal3d_wb.svg"
   inkscape:version="1.0.2 (1.0.2+r75+1)"><metadata
   id="metadata32"><rdf:RDF><cc:Work
       rdf:about=""><dc:format>image/svg+xml</dc:format><dc:type
         rdf:resource="http://purl.org/dc/dcmitype/StillImage" /><dc:title></dc:title></cc:Work></rdf:RDF></metadata><defs
   id="defs30" /><sodipodi:namedview
   pagecolor="#ffffff"
   bordercolor="#666666"
   borderopacity="1"
   objecttolerance="10"
   gridtolerance="10"
   guidetolerance="10"
   inkscape:pageopacity="0"
   inkscape:pageshadow="2"
   inkscape:window-width="1289"
   inkscape:window-height="788"
   id="namedview28"
   showgrid="false"
   inkscape:zoom="0.80859375"
   inkscape:cx="319.60315"
   inkscape:cy="306.61011"
   inkscape:window-x="2346"
   inkscape:window-y="117"
   inkscape:window-maximized="0"
   inkscape:current-layer="svg26" />
    <g
   transform="matrix(1,0,0,1,-1350,0)"
   id="g24">
        <g
   id="Page-3"
   serif:id="Page 3"
   transform="matrix(0.920398,0,0,8.79619,1350,0)">
            <rect
   x="0"
   y="0"
   width="556.281"
   height="58.207"
   style="fill:none;"
   id="rect2" />
            <g
   id="Calque-1"
   serif:id="Calque 1">
            </g>
            <g
   transform="matrix(3.6105,0,0,0.344089,-1584.88,-49.9265)"
   id="g17">
                <g
   transform="matrix(4.7985,0,0,5.36209,439.399,144.601)"
   id="g7">
                    <path
   d="M17.506,1.633L1.55,5.233L1.55,23.7L13.455,30.1L30.45,26.1L30.45,7.3L17.506,1.633Z"
   style="fill:none;fill-rule:nonzero;stroke:rgb(160,82,45);stroke-width:1.1px;"
   id="path5" />
                </g>
                <g
   transform="matrix(4.7985,0,0,5.36209,439.399,144.601)"
   id="g11">
                    <path
   d="M1.983,5.5L13.55,11.233L13.55,29.95M13.5,11.3L30.4,7.3"
   style="fill:none;fill-rule:nonzero;stroke:rgb(160,82,45);stroke-width:1.1px;"
   id="path9" />
                </g>
                <g
   transform="matrix(4.7985,0,0,5.36209,439.399,144.601)"
   id="g15">
                    <path
   d="M17.5,1.7L17.5,20.433L1.477,23.7M17.5,20.4L30.4,26.1"
   style="fill:none;fill-rule:nonzero;stroke:rgb(160,82,45);stroke-opacity:0.4;stroke-width:1px;"
   id="path13" />
                </g>
            </g>
            <g
   transform="matrix(531.173,0,0,55.5798,70.1861,48.5564)"
   id="g21">
                <path
   d="M0.753,-0.39L0.402,-0.39L0.402,-0.25L0.589,-0.25C0.564,-0.183 0.503,-0.142 0.41,-0.142C0.274,-0.142 0.19,-0.229 0.19,-0.348C0.19,-0.471 0.278,-0.558 0.396,-0.558C0.475,-0.558 0.538,-0.522 0.567,-0.476L0.703,-0.554C0.644,-0.648 0.531,-0.714 0.397,-0.714C0.191,-0.714 0.03,-0.552 0.03,-0.349C0.03,-0.148 0.188,0.014 0.408,0.014C0.604,0.014 0.753,-0.116 0.753,-0.33L0.753,-0.39Z"
   style="fill:rgb(148,197,42);fill-rule:nonzero;stroke:rgb(45,152,42);stroke-width:0.01px;stroke-linecap:butt;stroke-miterlimit:2;"
   id="path19" />
            </g>
        </g>
    </g>
</svg>
